<svg width="158" height="158" viewBox="0 0 158 158" fill="none" xmlns="http://www.w3.org/2000/svg">
<g filter="url(#filter0_d_103_6)">
<circle cx="79" cy="75" r="74.5" fill="#3A4958" stroke="#6D8DB9"/>
<path d="M48.6477 99.5909C47.1477 99.5909 45.8598 99.0606 44.7841 98C43.7235 96.9242 43.1932 95.6364 43.1932 94.1364C43.1932 92.6515 43.7235 91.3788 44.7841 90.3182C45.8598 89.2576 47.1477 88.7273 48.6477 88.7273C50.1023 88.7273 51.375 89.2576 52.4659 90.3182C53.5568 91.3788 54.1023 92.6515 54.1023 94.1364C54.1023 95.1364 53.8447 96.053 53.3295 96.8864C52.8295 97.7045 52.1705 98.3636 51.3523 98.8636C50.5341 99.3485 49.6326 99.5909 48.6477 99.5909ZM72.0739 52.4545V99H62.233V52.4545H72.0739ZM78.3977 60.5682V52.4545H116.625V60.5682H102.375V99H92.6477V60.5682H78.3977Z" fill="white"/>
<path d="M44.7841 98L44.072 98.7021L44.077 98.7071L44.082 98.7121L44.7841 98ZM44.7841 90.3182L44.082 89.6061L44.077 89.6111L44.7841 90.3182ZM52.4659 90.3182L51.7688 91.0352L51.7688 91.0352L52.4659 90.3182ZM53.3295 96.8864L52.4789 96.3605L52.4763 96.3649L53.3295 96.8864ZM51.3523 98.8636L51.8621 99.724L51.8737 99.7169L51.3523 98.8636ZM48.6477 98.5909C47.4126 98.5909 46.3763 98.1655 45.4862 97.2879L44.082 98.7121C45.3434 99.9557 46.8829 100.591 48.6477 100.591V98.5909ZM45.4962 97.2979C44.6186 96.4078 44.1932 95.3715 44.1932 94.1364H42.1932C42.1932 95.9012 42.8284 97.4407 44.072 98.7021L45.4962 97.2979ZM44.1932 94.1364C44.1932 92.9197 44.616 91.9005 45.4912 91.0253L44.077 89.6111C42.831 90.8571 42.1932 92.3833 42.1932 94.1364H44.1932ZM45.4862 91.0303C46.3763 90.1527 47.4126 89.7273 48.6477 89.7273V87.7273C46.8829 87.7273 45.3434 88.3625 44.082 89.6061L45.4862 91.0303ZM48.6477 89.7273C49.8289 89.7273 50.8551 90.1468 51.7688 91.0352L53.163 89.6012C51.8949 88.3684 50.3756 87.7273 48.6477 87.7273V89.7273ZM51.7688 91.0352C52.6715 91.9127 53.1023 92.929 53.1023 94.1364H55.1023C55.1023 92.374 54.4422 90.8448 53.163 89.6012L51.7688 91.0352ZM53.1023 94.1364C53.1023 94.9547 52.8943 95.6886 52.479 96.3605L54.1801 97.4122C54.7951 96.4174 55.1023 95.3181 55.1023 94.1364H53.1023ZM52.4763 96.3649C52.059 97.0477 51.5136 97.5931 50.8308 98.0104L51.8737 99.7169C52.8273 99.1342 53.6001 98.3614 54.1828 97.4078L52.4763 96.3649ZM50.8425 98.0033C50.1843 98.3934 49.4599 98.5909 48.6477 98.5909V100.591C49.8053 100.591 50.8839 100.304 51.8621 99.7239L50.8425 98.0033ZM72.0739 52.4545H73.0739V51.4545H72.0739V52.4545ZM72.0739 99V100H73.0739V99H72.0739ZM62.233 99H61.233V100H62.233V99ZM62.233 52.4545V51.4545H61.233V52.4545H62.233ZM71.0739 52.4545V99H73.0739V52.4545H71.0739ZM72.0739 98H62.233V100H72.0739V98ZM63.233 99V52.4545H61.233V99H63.233ZM62.233 53.4545H72.0739V51.4545H62.233V53.4545ZM78.3977 60.5682H77.3977V61.5682H78.3977V60.5682ZM78.3977 52.4545V51.4545H77.3977V52.4545H78.3977ZM116.625 52.4545H117.625V51.4545H116.625V52.4545ZM116.625 60.5682V61.5682H117.625V60.5682H116.625ZM102.375 60.5682V59.5682H101.375V60.5682H102.375ZM102.375 99V100H103.375V99H102.375ZM92.6477 99H91.6477V100H92.6477V99ZM92.6477 60.5682H93.6477V59.5682H92.6477V60.5682ZM79.3977 60.5682V52.4545H77.3977V60.5682H79.3977ZM78.3977 53.4545H116.625V51.4545H78.3977V53.4545ZM115.625 52.4545V60.5682H117.625V52.4545H115.625ZM116.625 59.5682H102.375V61.5682H116.625V59.5682ZM101.375 60.5682V99H103.375V60.5682H101.375ZM102.375 98H92.6477V100H102.375V98ZM93.6477 99V60.5682H91.6477V99H93.6477ZM92.6477 59.5682H78.3977V61.5682H92.6477V59.5682Z" fill="#6D8DB9"/>
</g>
<defs>
<filter id="filter0_d_103_6" x="0" y="0" width="158" height="158" filterUnits="userSpaceOnUse" color-interpolation-filters="sRGB">
<feFlood flood-opacity="0" result="BackgroundImageFix"/>
<feColorMatrix in="SourceAlpha" type="matrix" values="0 0 0 0 0 0 0 0 0 0 0 0 0 0 0 0 0 0 127 0" result="hardAlpha"/>
<feOffset dy="4"/>
<feGaussianBlur stdDeviation="2"/>
<feComposite in2="hardAlpha" operator="out"/>
<feColorMatrix type="matrix" values="0 0 0 0 0 0 0 0 0 0 0 0 0 0 0 0 0 0 0.25 0"/>
<feBlend mode="normal" in2="BackgroundImageFix" result="effect1_dropShadow_103_6"/>
<feBlend mode="normal" in="SourceGraphic" in2="effect1_dropShadow_103_6" result="shape"/>
</filter>
</defs>
</svg>
